<!-- Generated by IcoMoon.io -->
<svg version="1.1" xmlns="http://www.w3.org/2000/svg" width="32" height="32" viewBox="0 0 32 32">
<title>pen_icon-2</title>
<path d="M19.566 6.409h-7.596l-1.643-6.409h10.881l-1.642 6.409zM12.996 5.127h5.544l0.985-3.845h-7.515l0.986 3.845z"></path>
<path d="M16.818 30.763h-2.099l-0.186-0.337c-0.375-0.68-0.833-1.461-1.329-2.308-2.246-3.83-5.32-9.076-5.32-12.736 0-4.6 3.168-7.691 7.884-7.691s7.884 3.090 7.884 7.691c0 3.658-3.072 8.9-5.314 12.728-0.498 0.851-0.957 1.634-1.334 2.317l-0.186 0.337zM15.502 29.481h0.533c0.342-0.608 0.738-1.284 1.163-2.009 2.169-3.703 5.14-8.774 5.14-12.091 0-3.893-2.579-6.409-6.57-6.409s-6.57 2.516-6.57 6.409c0 3.319 2.974 8.395 5.146 12.1 0.423 0.721 0.817 1.395 1.158 2z"></path>
<path d="M15.768 19.227c-1.449 0-2.628-1.15-2.628-2.564s1.179-2.564 2.628-2.564c1.449 0 2.628 1.15 2.628 2.564s-1.179 2.564-2.628 2.564zM15.768 15.382c-0.725 0-1.314 0.575-1.314 1.282s0.589 1.282 1.314 1.282 1.314-0.575 1.314-1.282c0-0.707-0.589-1.282-1.314-1.282z"></path>
<path d="M16.425 18.586h-1.314v11.536h1.314v-11.536z"></path>
<path d="M14.454 5.768h-1.314v2.774h1.314v-2.774z"></path>
<path d="M18.396 5.768h-1.314v2.774h1.314v-2.774z"></path>
</svg>
