<svg aria-hidden="true" style="position: absolute; width: 0; height: 0; overflow: hidden;" version="1.1" xmlns="http://www.w3.org/2000/svg" xmlns:xlink="http://www.w3.org/1999/xlink">
<defs>
<symbol id="icon-close_fullscreen" viewBox="0 0 24 24">
<path d="M21.984 3.422l-5.297 5.297 3.328 3.281h-8.016v-8.016l3.281 3.328 5.297-5.297zM3.422 21.984l5.297-5.297 3.281 3.328v-8.016h-8.016l3.328 3.281-5.297 5.297z"></path>
</symbol>
<symbol id="icon-user" viewBox="0 0 24 24">
<path d="M21 21v-2c0-1.38-0.561-2.632-1.464-3.536s-2.156-1.464-3.536-1.464h-8c-1.38 0-2.632 0.561-3.536 1.464s-1.464 2.156-1.464 3.536v2c0 0.552 0.448 1 1 1s1-0.448 1-1v-2c0-0.829 0.335-1.577 0.879-2.121s1.292-0.879 2.121-0.879h8c0.829 0 1.577 0.335 2.121 0.879s0.879 1.292 0.879 2.121v2c0 0.552 0.448 1 1 1s1-0.448 1-1zM17 7c0-1.38-0.561-2.632-1.464-3.536s-2.156-1.464-3.536-1.464-2.632 0.561-3.536 1.464-1.464 2.156-1.464 3.536 0.561 2.632 1.464 3.536 2.156 1.464 3.536 1.464 2.632-0.561 3.536-1.464 1.464-2.156 1.464-3.536zM15 7c0 0.829-0.335 1.577-0.879 2.121s-1.292 0.879-2.121 0.879-1.577-0.335-2.121-0.879-0.879-1.292-0.879-2.121 0.335-1.577 0.879-2.121 1.292-0.879 2.121-0.879 1.577 0.335 2.121 0.879 0.879 1.292 0.879 2.121z"></path>
</symbol>
<symbol id="icon-pie-chart" viewBox="0 0 24 24">
<path d="M20.289 15.501c-0.968 2.289-2.771 3.968-4.906 4.835s-4.599 0.917-6.888-0.051-3.968-2.771-4.835-4.906-0.918-4.6 0.050-6.889c0.936-2.214 2.652-3.856 4.689-4.743 0.506-0.221 0.738-0.81 0.518-1.316s-0.81-0.738-1.316-0.518c-2.489 1.084-4.589 3.094-5.733 5.798-1.183 2.798-1.119 5.812-0.062 8.419s3.112 4.814 5.909 5.997 5.812 1.119 8.419 0.062 4.814-3.112 5.997-5.909c0.215-0.509-0.023-1.095-0.532-1.311s-1.095 0.023-1.311 0.532zM20.945 11h-7.945v-7.945c2.086 0.23 3.956 1.173 5.364 2.581s2.351 3.278 2.581 5.364zM23 12c0-3.037-1.232-5.789-3.222-7.778s-4.741-3.222-7.778-3.222c-0.552 0-1 0.448-1 1v10c0 0.552 0.448 1 1 1h10c0.552 0 1-0.448 1-1z"></path>
</symbol>
<symbol id="icon-close-outline" viewBox="0 0 20 20">
<path d="M2.93 17.070c-1.884-1.821-3.053-4.37-3.053-7.193 0-5.523 4.477-10 10-10 2.823 0 5.372 1.169 7.19 3.050l0.003 0.003c1.737 1.796 2.807 4.247 2.807 6.947 0 5.523-4.477 10-10 10-2.7 0-5.151-1.070-6.95-2.81l0.003 0.003zM4.34 15.66c1.449 1.449 3.45 2.344 5.66 2.344 4.421 0 8.004-3.584 8.004-8.004 0-2.21-0.896-4.211-2.344-5.66v0c-1.449-1.449-3.45-2.344-5.66-2.344-4.421 0-8.004 3.584-8.004 8.004 0 2.21 0.896 4.211 2.344 5.66v0zM14.24 7.17l-2.83 2.83 2.83 2.83-1.41 1.41-2.83-2.83-2.83 2.83-1.41-1.41 2.83-2.83-2.83-2.83 1.41-1.41 2.83 2.83 2.83-2.83 1.41 1.41z"></path>
</symbol>
<symbol id="icon-close" viewBox="0 0 20 20">
<path d="M10 8.586l-7.071-7.071-1.414 1.414 7.071 7.071-7.071 7.071 1.414 1.414 7.071-7.071 7.071 7.071 1.414-1.414-7.071-7.071 7.071-7.071-1.414-1.414-7.071 7.071z"></path>
</symbol>
<symbol id="icon-linegraph" viewBox="0 0 42 32">
<path d="M39 0c-1.654 0-3 1.346-3 3 0 0.888 0.396 1.679 1.011 2.229l-8.8 14.031c-0.371-0.165-0.78-0.26-1.211-0.26-0.868 0-1.644 0.376-2.193 0.967l-9.073-5.745c0.168-0.374 0.266-0.786 0.266-1.222 0-1.654-1.346-3-3-3s-3 1.346-3 3c0 0.904 0.41 1.706 1.044 2.256l-6.895 10.975c-0.354-0.148-0.742-0.231-1.149-0.231-1.654 0-3 1.346-3 3s1.346 3 3 3 3-1.346 3-3c0-0.888-0.395-1.678-1.010-2.228l6.904-10.99c0.343 0.138 0.715 0.218 1.106 0.218 0.859 0 1.629-0.367 2.176-0.947l9.078 5.748c-0.161 0.368-0.254 0.772-0.254 1.199 0 1.654 1.346 3 3 3s3-1.346 3-3c0-0.863-0.371-1.636-0.957-2.184l8.81-14.046c0.354 0.147 0.741 0.23 1.147 0.23 1.654 0 3-1.346 3-3s-1.346-3-3-3zM5 29c0 1.103-0.897 2-2 2s-2-0.897-2-2 0.897-2 2-2 2 0.897 2 2zM13 15c-1.103 0-2-0.897-2-2s0.897-2 2-2 2 0.897 2 2-0.897 2-2 2zM27 24c-1.103 0-2-0.897-2-2s0.897-2 2-2 2 0.897 2 2-0.897 2-2 2zM39 5c-1.103 0-2-0.897-2-2s0.897-2 2-2 2 0.897 2 2-0.897 2-2 2z"></path>
</symbol>
<symbol id="icon-piechart" viewBox="0 0 32 32">
<path d="M29 17.518c0-0.276-0.224-0.5-0.5-0.5h-13.5v-13.518c0-0.276-0.224-0.5-0.5-0.5-7.995 0-14.5 6.495-14.5 14.479 0 8.278 6.243 14.521 14.521 14.521 7.713 0 14.479-6.768 14.479-14.482zM1 17.479c0-7.266 5.787-13.206 13-13.47v13.509c0 0.276 0.224 0.5 0.5 0.482h13.49c-0.283 6.99-6.455 13-13.469 13-7.708 0-13.521-5.812-13.521-13.521zM17.5 15h13.999c0.276 0.018 0.501-0.224 0.501-0.5 0-7.995-6.505-14.5-14.5-14.5-0.276 0-0.5 0.224-0.5 0.5v14.018c0 0.276 0.224 0.5 0.5 0.482zM18 1.009c7.063 0.259 12.759 5.97 12.994 13.009h-12.994v-13.009z"></path>
</symbol>
<symbol id="icon-bargraph" viewBox="0 0 36 32">
<path d="M26 10.5v20c0 0.176 0.036 0.343 0.092 0.5h-3.184c0.056-0.157 0.092-0.324 0.092-0.5v-29c0-0.827-0.673-1.5-1.5-1.5h-7c-0.827 0-1.5 0.673-1.5 1.5v29c0 0.176 0.036 0.343 0.092 0.5h-3.184c0.056-0.157 0.092-0.324 0.092-0.5v-11c0-0.827-0.673-1.5-1.5-1.5h-7c-0.827 0-1.5 0.673-1.5 1.5v11c0 0.827 0.673 1.5 1.5 1.5h33c0.827 0 1.5-0.673 1.5-1.5v-20c0-0.827-0.673-1.5-1.5-1.5h-7c-0.827 0-1.5 0.673-1.5 1.5zM5 31h-3.5c-0.275 0-0.5-0.224-0.5-0.5v-11c0-0.276 0.225-0.5 0.5-0.5h7c0.275 0 0.5 0.224 0.5 0.5v11c0 0.276-0.225 0.5-0.5 0.5h-3.5zM14.5 31c-0.275 0-0.5-0.224-0.5-0.5v-29c0-0.276 0.225-0.5 0.5-0.5h7c0.275 0 0.5 0.224 0.5 0.5v29c0 0.276-0.225 0.5-0.5 0.5h-7zM35 10.5v20c0 0.276-0.225 0.5-0.5 0.5h-7c-0.275 0-0.5-0.224-0.5-0.5v-20c0-0.276 0.225-0.5 0.5-0.5h7c0.275 0 0.5 0.224 0.5 0.5z"></path>
</symbol>
<symbol id="icon-line-chart" viewBox="0 0 32 28">
<path d="M32 24v2h-32v-24h2v22h30zM30 4.5v6.797c0 0.438-0.531 0.672-0.859 0.344l-1.891-1.891-9.891 9.891c-0.203 0.203-0.516 0.203-0.719 0l-3.641-3.641-6.5 6.5-3-3 9.141-9.141c0.203-0.203 0.516-0.203 0.719 0l3.641 3.641 7.25-7.25-1.891-1.891c-0.328-0.328-0.094-0.859 0.344-0.859h6.797c0.281 0 0.5 0.219 0.5 0.5z"></path>
</symbol>
<symbol id="icon-bar-chart" viewBox="0 0 32 28">
<path d="M10 14v8h-4v-8h4zM16 6v16h-4v-16h4zM32 24v2h-32v-24h2v22h30zM22 10v12h-4v-12h4zM28 4v18h-4v-18h4z"></path>
</symbol>
<symbol id="icon-chart" viewBox="0 0 18 18">
<path d="M3 15v-14h-2v15c0 0.552 0.448 1 1 1h15v-2h-14z"></path>
<path d="M5.5 13h1c0.276 0 0.5-0.224 0.5-0.5v-5c0-0.276-0.224-0.5-0.5-0.5h-1c-0.276 0-0.5 0.224-0.5 0.5v5c0 0.276 0.224 0.5 0.5 0.5z"></path>
<path d="M8.5 13h1c0.276 0 0.5-0.224 0.5-0.5v-9c0-0.276-0.224-0.5-0.5-0.5h-1c-0.276 0-0.5 0.224-0.5 0.5v9c0 0.276 0.224 0.5 0.5 0.5z"></path>
<path d="M11.5 13h1c0.276 0 0.5-0.224 0.5-0.5v-3c0-0.276-0.224-0.5-0.5-0.5h-1c-0.276 0-0.5 0.224-0.5 0.5v3c0 0.276 0.224 0.5 0.5 0.5z"></path>
<path d="M14.5 13h1c0.276 0 0.5-0.224 0.5-0.5v-7c0-0.276-0.224-0.5-0.5-0.5h-1c-0.276 0-0.5 0.224-0.5 0.5v7c0 0.276 0.224 0.5 0.5 0.5z"></path>
</symbol>
<symbol id="icon-stats" viewBox="0 0 32 32">
<path d="M30 0h-28c-1.104 0-2 0.896-2 2v20c0 1.104 0.896 2 2 2h8l-4 8h1l7.2-8h3.6l7.2 8h1l-4-8h8c1.104 0 2-0.896 2-2v-20c0-1.104-0.896-2-2-2zM30 21c0 0.553-0.447 1-1 1h-26c-0.553 0-1-0.447-1-1v-18c0-0.553 0.447-1 1-1h26c0.553 0 1 0.447 1 1v18zM20.878 15.631l-4.521-11.629-4.938 9.29-2.756-2.835-4.663 2.906 1.316 0.758 2.988-1.862 3.605 3.712 4.175-7.853 4.616 11.879 3.937-8.288 1.604 3.414 1.759-0.295-3.354-7.132-3.768 7.935z"></path>
</symbol>
<symbol id="icon-pen_icon-2" viewBox="0 0 32 32">
<path d="M19.566 6.409h-7.596l-1.643-6.409h10.881l-1.642 6.409zM12.996 5.127h5.544l0.985-3.845h-7.515l0.986 3.845z"></path>
<path d="M16.818 30.763h-2.099l-0.186-0.337c-0.375-0.68-0.833-1.461-1.329-2.308-2.246-3.83-5.32-9.076-5.32-12.736 0-4.6 3.168-7.691 7.884-7.691s7.884 3.090 7.884 7.691c0 3.658-3.072 8.9-5.314 12.728-0.498 0.851-0.957 1.634-1.334 2.317l-0.186 0.337zM15.502 29.481h0.533c0.342-0.608 0.738-1.284 1.163-2.009 2.169-3.703 5.14-8.774 5.14-12.091 0-3.893-2.579-6.409-6.57-6.409s-6.57 2.516-6.57 6.409c0 3.319 2.974 8.395 5.146 12.1 0.423 0.721 0.817 1.395 1.158 2z"></path>
<path d="M15.768 19.227c-1.449 0-2.628-1.15-2.628-2.564s1.179-2.564 2.628-2.564c1.449 0 2.628 1.15 2.628 2.564s-1.179 2.564-2.628 2.564zM15.768 15.382c-0.725 0-1.314 0.575-1.314 1.282s0.589 1.282 1.314 1.282 1.314-0.575 1.314-1.282c0-0.707-0.589-1.282-1.314-1.282z"></path>
<path d="M16.425 18.586h-1.314v11.536h1.314v-11.536z"></path>
<path d="M14.454 5.768h-1.314v2.774h1.314v-2.774z"></path>
<path d="M18.396 5.768h-1.314v2.774h1.314v-2.774z"></path>
</symbol>
<symbol id="icon-world_icon-2" viewBox="0 0 32 32">
<path d="M15.667 3c-0.006 0-0.006 0-0.012 0 0 0 0 0-0.006 0s-0.012 0-0.012 0c-7.169 0.019-12.969 5.831-12.969 13s5.8 12.981 12.969 13c0.006 0 0.012 0 0.012 0h0.006c0.006 0 0.006 0 0.012 0 7.181 0 13-5.819 13-13s-5.819-13-13-13zM16.185 10.781c1.381-0.037 2.719-0.219 4.013-0.531 0.387 1.531 0.631 3.3 0.669 5.238h-4.681v-4.706zM16.185 9.738v-5.612c1.4 0.388 2.825 2.256 3.725 5.125-1.2 0.287-2.444 0.45-3.725 0.488zM15.148 4.112v5.631c-1.294-0.037-2.55-0.206-3.756-0.5 0.912-2.888 2.344-4.769 3.756-5.131zM15.148 10.781v4.7h-4.713c0.037-1.938 0.281-3.706 0.669-5.238 1.3 0.313 2.656 0.5 4.044 0.537zM9.385 15.481h-5.662c0.112-2.675 1.112-5.125 2.706-7.063 1.156 0.637 2.388 1.162 3.675 1.55-0.425 1.656-0.675 3.525-0.719 5.512zM9.385 16.519c0.037 1.981 0.287 3.856 0.713 5.512-1.287 0.394-2.513 0.912-3.675 1.55-1.594-1.937-2.587-4.387-2.706-7.062h5.669zM10.435 16.519h4.713v4.694c-1.387 0.038-2.744 0.225-4.044 0.544-0.387-1.531-0.631-3.3-0.669-5.238zM15.148 22.256v5.637c-1.412-0.369-2.844-2.244-3.756-5.131 1.206-0.3 2.463-0.469 3.756-0.506zM16.185 27.875v-5.625c1.281 0.038 2.525 0.206 3.731 0.494-0.906 2.875-2.325 4.744-3.731 5.131zM16.185 21.213v-4.694h4.681c-0.038 1.931-0.281 3.7-0.669 5.231-1.294-0.312-2.631-0.5-4.013-0.537zM21.91 16.519h5.7c-0.112 2.675-1.112 5.119-2.706 7.062-1.169-0.644-2.406-1.169-3.706-1.562 0.425-1.656 0.675-3.519 0.712-5.5zM21.91 15.481c-0.038-1.981-0.288-3.85-0.706-5.506 1.3-0.394 2.537-0.919 3.7-1.556 1.594 1.938 2.594 4.387 2.706 7.069h-5.7v-0.006zM24.192 7.619c-1.038 0.55-2.125 1.006-3.269 1.35-0.606-1.956-1.463-3.55-2.469-4.6 2.213 0.531 4.188 1.681 5.738 3.25zM12.842 4.381c-1.006 1.044-1.856 2.638-2.456 4.581-1.131-0.344-2.213-0.794-3.237-1.344 1.531-1.563 3.494-2.706 5.694-3.237zM7.142 24.375c1.025-0.55 2.112-1 3.237-1.344 0.606 1.95 1.456 3.538 2.463 4.588-2.2-0.531-4.162-1.675-5.7-3.244zM18.454 27.631c1.013-1.050 1.863-2.644 2.475-4.606 1.144 0.344 2.231 0.8 3.269 1.35-1.55 1.575-3.531 2.725-5.744 3.256z"></path>
</symbol>
</defs>
</svg>
