<!-- Generated by IcoMoon.io -->
<svg version="1.1" xmlns="http://www.w3.org/2000/svg" width="32" height="32" viewBox="0 0 32 32">
<title>world_icon-2</title>
<path d="M15.667 3c-0.006 0-0.006 0-0.012 0 0 0 0 0-0.006 0s-0.012 0-0.012 0c-7.169 0.019-12.969 5.831-12.969 13s5.8 12.981 12.969 13c0.006 0 0.012 0 0.012 0h0.006c0.006 0 0.006 0 0.012 0 7.181 0 13-5.819 13-13s-5.819-13-13-13zM16.185 10.781c1.381-0.037 2.719-0.219 4.013-0.531 0.387 1.531 0.631 3.3 0.669 5.238h-4.681v-4.706zM16.185 9.738v-5.612c1.4 0.388 2.825 2.256 3.725 5.125-1.2 0.287-2.444 0.45-3.725 0.488zM15.148 4.112v5.631c-1.294-0.037-2.55-0.206-3.756-0.5 0.912-2.888 2.344-4.769 3.756-5.131zM15.148 10.781v4.7h-4.713c0.037-1.938 0.281-3.706 0.669-5.238 1.3 0.313 2.656 0.5 4.044 0.537zM9.385 15.481h-5.662c0.112-2.675 1.112-5.125 2.706-7.063 1.156 0.637 2.388 1.162 3.675 1.55-0.425 1.656-0.675 3.525-0.719 5.512zM9.385 16.519c0.037 1.981 0.287 3.856 0.713 5.512-1.287 0.394-2.513 0.912-3.675 1.55-1.594-1.937-2.587-4.387-2.706-7.062h5.669zM10.435 16.519h4.713v4.694c-1.387 0.038-2.744 0.225-4.044 0.544-0.387-1.531-0.631-3.3-0.669-5.238zM15.148 22.256v5.637c-1.412-0.369-2.844-2.244-3.756-5.131 1.206-0.3 2.463-0.469 3.756-0.506zM16.185 27.875v-5.625c1.281 0.038 2.525 0.206 3.731 0.494-0.906 2.875-2.325 4.744-3.731 5.131zM16.185 21.213v-4.694h4.681c-0.038 1.931-0.281 3.7-0.669 5.231-1.294-0.312-2.631-0.5-4.013-0.537zM21.91 16.519h5.7c-0.112 2.675-1.112 5.119-2.706 7.062-1.169-0.644-2.406-1.169-3.706-1.562 0.425-1.656 0.675-3.519 0.712-5.5zM21.91 15.481c-0.038-1.981-0.288-3.85-0.706-5.506 1.3-0.394 2.537-0.919 3.7-1.556 1.594 1.938 2.594 4.387 2.706 7.069h-5.7v-0.006zM24.192 7.619c-1.038 0.55-2.125 1.006-3.269 1.35-0.606-1.956-1.463-3.55-2.469-4.6 2.213 0.531 4.188 1.681 5.738 3.25zM12.842 4.381c-1.006 1.044-1.856 2.638-2.456 4.581-1.131-0.344-2.213-0.794-3.237-1.344 1.531-1.563 3.494-2.706 5.694-3.237zM7.142 24.375c1.025-0.55 2.112-1 3.237-1.344 0.606 1.95 1.456 3.538 2.463 4.588-2.2-0.531-4.162-1.675-5.7-3.244zM18.454 27.631c1.013-1.050 1.863-2.644 2.475-4.606 1.144 0.344 2.231 0.8 3.269 1.35-1.55 1.575-3.531 2.725-5.744 3.256z"></path>
</svg>
