<!-- Generated by IcoMoon.io -->
<svg version="1.1" xmlns="http://www.w3.org/2000/svg" width="32" height="32" viewBox="0 0 32 32">
<title>copyright_ic_icon-1</title>
<path fill="#fff" d="M16 2.667c-7.367 0-13.333 5.967-13.333 13.333s5.967 13.333 13.333 13.333 13.333-5.967 13.333-13.333c0-7.367-5.967-13.333-13.333-13.333zM16 26.667c-5.88 0-10.667-4.787-10.667-10.667s4.787-10.667 10.667-10.667 10.667 4.787 10.667 10.667c0 5.88-4.787 10.667-10.667 10.667zM13.44 14.487c0.073-0.433 0.207-0.82 0.4-1.16s0.46-0.613 0.787-0.82c0.313-0.193 0.707-0.3 1.193-0.307 0.32 0.007 0.613 0.060 0.867 0.173 0.273 0.12 0.5 0.28 0.693 0.48s0.34 0.44 0.447 0.707c0.107 0.267 0.167 0.553 0.18 0.853h2.387c-0.020-0.627-0.147-1.2-0.367-1.72s-0.54-0.967-0.94-1.347-0.88-0.667-1.44-0.873c-0.56-0.207-1.18-0.313-1.86-0.313-0.867 0-1.62 0.147-2.26 0.447s-1.173 0.707-1.6 1.227c-0.427 0.52-0.747 1.12-0.953 1.807s-0.307 1.413-0.307 2.18v0.367c0 0.773 0.107 1.5 0.313 2.187s0.527 1.287 0.953 1.8c0.427 0.513 0.96 0.92 1.607 1.22s1.4 0.447 2.267 0.447c0.627 0 1.213-0.1 1.76-0.307s1.027-0.487 1.44-0.847c0.413-0.36 0.747-0.773 0.987-1.253s0.38-0.987 0.4-1.533h-2.387c-0.013 0.28-0.080 0.533-0.2 0.773s-0.28 0.44-0.48 0.607c-0.2 0.167-0.433 0.3-0.7 0.393-0.253 0.087-0.52 0.133-0.807 0.133-0.48-0.013-0.873-0.113-1.193-0.313-0.333-0.213-0.6-0.487-0.793-0.827s-0.327-0.727-0.4-1.167-0.1-0.867-0.1-1.313v-0.367c0-0.453 0.033-0.9 0.107-1.333z"></path>
</svg>
