<!-- Generated by IcoMoon.io -->
<svg version="1.1" xmlns="http://www.w3.org/2000/svg" width="32" height="32" viewBox="0 0 32 32">
<title>filter_filters_funnel_list_navigation_icon-1</title>
<path fill="#fff" d="M28 9h-17c-0.265 0-0.52-0.105-0.707-0.293s-0.293-0.442-0.293-0.707c0-0.265 0.105-0.52 0.293-0.707s0.442-0.293 0.707-0.293h17c0.265 0 0.52 0.105 0.707 0.293s0.293 0.442 0.293 0.707-0.105 0.52-0.293 0.707c-0.188 0.188-0.442 0.293-0.707 0.293z"></path>
<path fill="#fff" d="M7 9h-3c-0.265 0-0.52-0.105-0.707-0.293s-0.293-0.442-0.293-0.707c0-0.265 0.105-0.52 0.293-0.707s0.442-0.293 0.707-0.293h3c0.265 0 0.52 0.105 0.707 0.293s0.293 0.442 0.293 0.707c0 0.265-0.105 0.52-0.293 0.707s-0.442 0.293-0.707 0.293z"></path>
<path fill="#fff" d="M21 17h-17c-0.265 0-0.52-0.105-0.707-0.293s-0.293-0.442-0.293-0.707c0-0.265 0.105-0.52 0.293-0.707s0.442-0.293 0.707-0.293h17c0.265 0 0.52 0.105 0.707 0.293s0.293 0.442 0.293 0.707c0 0.265-0.105 0.52-0.293 0.707s-0.442 0.293-0.707 0.293z"></path>
<path fill="#fff" d="M11 25h-7c-0.265 0-0.52-0.105-0.707-0.293s-0.293-0.442-0.293-0.707 0.105-0.52 0.293-0.707c0.188-0.188 0.442-0.293 0.707-0.293h7c0.265 0 0.52 0.105 0.707 0.293s0.293 0.442 0.293 0.707-0.105 0.52-0.293 0.707c-0.188 0.188-0.442 0.293-0.707 0.293z"></path>
<path fill="#fff" d="M9 11c-0.593 0-1.173-0.176-1.667-0.506s-0.878-0.798-1.105-1.346c-0.227-0.548-0.286-1.151-0.171-1.733s0.401-1.117 0.821-1.536c0.42-0.42 0.954-0.705 1.536-0.821s1.185-0.056 1.733 0.171c0.548 0.227 1.017 0.612 1.346 1.105s0.506 1.073 0.506 1.667c0 0.796-0.316 1.559-0.879 2.121s-1.326 0.879-2.121 0.879zM9 7c-0.198 0-0.391 0.059-0.556 0.169s-0.293 0.266-0.368 0.449c-0.076 0.183-0.096 0.384-0.057 0.578s0.134 0.372 0.274 0.512c0.14 0.14 0.318 0.235 0.512 0.274s0.395 0.019 0.578-0.057c0.183-0.076 0.339-0.204 0.449-0.368s0.169-0.358 0.169-0.556c0-0.265-0.105-0.52-0.293-0.707s-0.442-0.293-0.707-0.293z"></path>
<path fill="#fff" d="M23 19c-0.593 0-1.173-0.176-1.667-0.506s-0.878-0.798-1.105-1.346c-0.227-0.548-0.286-1.151-0.171-1.733s0.402-1.117 0.821-1.536 0.954-0.705 1.536-0.821c0.582-0.116 1.185-0.056 1.733 0.171s1.017 0.612 1.346 1.105c0.33 0.493 0.506 1.073 0.506 1.667 0 0.796-0.316 1.559-0.879 2.121s-1.326 0.879-2.121 0.879zM23 15c-0.198 0-0.391 0.059-0.556 0.169s-0.293 0.266-0.368 0.449c-0.076 0.183-0.096 0.384-0.057 0.578s0.134 0.372 0.274 0.512c0.14 0.14 0.318 0.235 0.512 0.274s0.395 0.019 0.578-0.057 0.339-0.204 0.449-0.368c0.11-0.164 0.168-0.358 0.168-0.556 0-0.265-0.105-0.52-0.293-0.707s-0.442-0.293-0.707-0.293z"></path>
<path fill="#fff" d="M13 27c-0.593 0-1.173-0.176-1.667-0.506s-0.878-0.798-1.105-1.346c-0.227-0.548-0.286-1.151-0.171-1.733s0.401-1.116 0.821-1.536c0.42-0.42 0.954-0.705 1.536-0.821s1.185-0.056 1.733 0.171 1.017 0.612 1.346 1.105c0.33 0.493 0.506 1.073 0.506 1.667 0 0.796-0.316 1.559-0.879 2.121s-1.326 0.879-2.121 0.879zM13 23c-0.198 0-0.391 0.059-0.556 0.168s-0.293 0.266-0.368 0.449-0.095 0.384-0.057 0.578c0.039 0.194 0.134 0.372 0.274 0.512s0.318 0.235 0.512 0.274 0.395 0.019 0.578-0.057c0.183-0.076 0.339-0.204 0.449-0.368s0.169-0.358 0.169-0.556c0-0.265-0.105-0.52-0.293-0.707s-0.442-0.293-0.707-0.293z"></path>
<path fill="#fff" d="M28 17h-3c-0.265 0-0.52-0.105-0.707-0.293s-0.293-0.442-0.293-0.707c0-0.265 0.105-0.52 0.293-0.707s0.442-0.293 0.707-0.293h3c0.265 0 0.52 0.105 0.707 0.293s0.293 0.442 0.293 0.707c0 0.265-0.105 0.52-0.293 0.707s-0.442 0.293-0.707 0.293z"></path>
<path fill="#fff" d="M28 25h-13c-0.265 0-0.52-0.105-0.707-0.293s-0.293-0.442-0.293-0.707 0.105-0.52 0.293-0.707c0.188-0.188 0.442-0.293 0.707-0.293h13c0.265 0 0.52 0.105 0.707 0.293s0.293 0.442 0.293 0.707-0.105 0.52-0.293 0.707c-0.188 0.188-0.442 0.293-0.707 0.293z"></path>
</svg>
