<!-- Generated by IcoMoon.io -->
<svg version="1.1" xmlns="http://www.w3.org/2000/svg" width="32" height="32" viewBox="0 0 32 32">
<title>filter_filters_funnel_list_navigation_icon</title>
<path d="M28 9h-17c-0.552 0-1-0.448-1-1s0.448-1 1-1v0h17c0.552 0 1 0.448 1 1s-0.448 1-1 1v0z"></path>
<path d="M7 9h-3c-0.552 0-1-0.448-1-1s0.448-1 1-1v0h3c0.552 0 1 0.448 1 1s-0.448 1-1 1v0z"></path>
<path d="M21 17h-17c-0.552 0-1-0.448-1-1s0.448-1 1-1v0h17c0.552 0 1 0.448 1 1s-0.448 1-1 1v0z"></path>
<path d="M11 25h-7c-0.552 0-1-0.448-1-1s0.448-1 1-1v0h7c0.552 0 1 0.448 1 1s-0.448 1-1 1v0z"></path>
<path d="M9 11c-1.657 0-3-1.343-3-3s1.343-3 3-3c1.657 0 3 1.343 3 3v0c0 1.657-1.343 3-3 3v0zM9 7c-0.552 0-1 0.448-1 1s0.448 1 1 1c0.552 0 1-0.448 1-1v0c0-0.552-0.448-1-1-1v0z"></path>
<path d="M23 19c-1.657 0-3-1.343-3-3s1.343-3 3-3c1.657 0 3 1.343 3 3v0c0 1.657-1.343 3-3 3v0zM23 15c-0.552 0-1 0.448-1 1s0.448 1 1 1c0.552 0 1-0.448 1-1v0c0-0.552-0.448-1-1-1v0z"></path>
<path d="M13 27c-1.657 0-3-1.343-3-3s1.343-3 3-3c1.657 0 3 1.343 3 3v0c0 1.657-1.343 3-3 3v0zM13 23c-0.552 0-1 0.448-1 1s0.448 1 1 1c0.552 0 1-0.448 1-1v0c0-0.552-0.448-1-1-1v0z"></path>
<path d="M28 17h-3c-0.552 0-1-0.448-1-1s0.448-1 1-1v0h3c0.552 0 1 0.448 1 1s-0.448 1-1 1v0z"></path>
<path d="M28 25h-13c-0.552 0-1-0.448-1-1s0.448-1 1-1v0h13c0.552 0 1 0.448 1 1s-0.448 1-1 1v0z"></path>
</svg>
