<svg aria-hidden="true" style="position: absolute; width: 0; height: 0; overflow: hidden;" version="1.1" xmlns="http://www.w3.org/2000/svg" xmlns:xlink="http://www.w3.org/1999/xlink">
<defs>
<symbol id="icon-copyright_ic_icon-1" viewBox="0 0 32 32">
<path fill="#fff" style="fill: var(--color1, #fff)" d="M16 2.667c-7.367 0-13.333 5.967-13.333 13.333s5.967 13.333 13.333 13.333 13.333-5.967 13.333-13.333c0-7.367-5.967-13.333-13.333-13.333zM16 26.667c-5.88 0-10.667-4.787-10.667-10.667s4.787-10.667 10.667-10.667 10.667 4.787 10.667 10.667c0 5.88-4.787 10.667-10.667 10.667zM13.44 14.487c0.073-0.433 0.207-0.82 0.4-1.16s0.46-0.613 0.787-0.82c0.313-0.193 0.707-0.3 1.193-0.307 0.32 0.007 0.613 0.060 0.867 0.173 0.273 0.12 0.5 0.28 0.693 0.48s0.34 0.44 0.447 0.707c0.107 0.267 0.167 0.553 0.18 0.853h2.387c-0.020-0.627-0.147-1.2-0.367-1.72s-0.54-0.967-0.94-1.347-0.88-0.667-1.44-0.873c-0.56-0.207-1.18-0.313-1.86-0.313-0.867 0-1.62 0.147-2.26 0.447s-1.173 0.707-1.6 1.227c-0.427 0.52-0.747 1.12-0.953 1.807s-0.307 1.413-0.307 2.18v0.367c0 0.773 0.107 1.5 0.313 2.187s0.527 1.287 0.953 1.8c0.427 0.513 0.96 0.92 1.607 1.22s1.4 0.447 2.267 0.447c0.627 0 1.213-0.1 1.76-0.307s1.027-0.487 1.44-0.847c0.413-0.36 0.747-0.773 0.987-1.253s0.38-0.987 0.4-1.533h-2.387c-0.013 0.28-0.080 0.533-0.2 0.773s-0.28 0.44-0.48 0.607c-0.2 0.167-0.433 0.3-0.7 0.393-0.253 0.087-0.52 0.133-0.807 0.133-0.48-0.013-0.873-0.113-1.193-0.313-0.333-0.213-0.6-0.487-0.793-0.827s-0.327-0.727-0.4-1.167-0.1-0.867-0.1-1.313v-0.367c0-0.453 0.033-0.9 0.107-1.333z"></path>
</symbol>
<symbol id="icon-down_arrow_icon-1" viewBox="0 0 32 32">
<path d="M24.787 10l1.213 1.294-10 10.706-10-10.706 1.206-1.294 8.794 9.406 8.787-9.406z"></path>
</symbol>
<symbol id="icon-star_icon-9" viewBox="0 0 32 32">
<path fill="#ffc702" style="fill: var(--color2, #ffc702)" d="M30 12.937h-10.713l-3.287-9.944-3.287 9.944h-10.713l8.762 6.119-3.412 9.944 8.65-6.163 8.65 6.163-3.419-9.944 8.769-6.119z"></path>
</symbol>
<symbol id="icon-development_code_brackets_coding_html_icon-1" viewBox="0 0 32 32">
<path d="M12.516 11.892l-3.385 4.119 3.385 4.119 0.801-1.317-2.281-2.802 2.281-2.803-0.801-1.317z"></path>
<path d="M14.637 20.032h1.486l2.361-8.064h-1.486l-2.361 8.064z"></path>
<path d="M19.448 11.892l-0.8 1.317 2.281 2.803-2.281 2.802 0.8 1.317 3.385-4.119-3.385-4.119z"></path>
</symbol>
<symbol id="icon-filter_filters_funnel_list_navigation_icon-1" viewBox="0 0 32 32">
<path fill="#fff" style="fill: var(--color1, #fff)" d="M28 9h-17c-0.265 0-0.52-0.105-0.707-0.293s-0.293-0.442-0.293-0.707c0-0.265 0.105-0.52 0.293-0.707s0.442-0.293 0.707-0.293h17c0.265 0 0.52 0.105 0.707 0.293s0.293 0.442 0.293 0.707-0.105 0.52-0.293 0.707c-0.188 0.188-0.442 0.293-0.707 0.293z"></path>
<path fill="#fff" style="fill: var(--color1, #fff)" d="M7 9h-3c-0.265 0-0.52-0.105-0.707-0.293s-0.293-0.442-0.293-0.707c0-0.265 0.105-0.52 0.293-0.707s0.442-0.293 0.707-0.293h3c0.265 0 0.52 0.105 0.707 0.293s0.293 0.442 0.293 0.707c0 0.265-0.105 0.52-0.293 0.707s-0.442 0.293-0.707 0.293z"></path>
<path fill="#fff" style="fill: var(--color1, #fff)" d="M21 17h-17c-0.265 0-0.52-0.105-0.707-0.293s-0.293-0.442-0.293-0.707c0-0.265 0.105-0.52 0.293-0.707s0.442-0.293 0.707-0.293h17c0.265 0 0.52 0.105 0.707 0.293s0.293 0.442 0.293 0.707c0 0.265-0.105 0.52-0.293 0.707s-0.442 0.293-0.707 0.293z"></path>
<path fill="#fff" style="fill: var(--color1, #fff)" d="M11 25h-7c-0.265 0-0.52-0.105-0.707-0.293s-0.293-0.442-0.293-0.707 0.105-0.52 0.293-0.707c0.188-0.188 0.442-0.293 0.707-0.293h7c0.265 0 0.52 0.105 0.707 0.293s0.293 0.442 0.293 0.707-0.105 0.52-0.293 0.707c-0.188 0.188-0.442 0.293-0.707 0.293z"></path>
<path fill="#fff" style="fill: var(--color1, #fff)" d="M9 11c-0.593 0-1.173-0.176-1.667-0.506s-0.878-0.798-1.105-1.346c-0.227-0.548-0.286-1.151-0.171-1.733s0.401-1.117 0.821-1.536c0.42-0.42 0.954-0.705 1.536-0.821s1.185-0.056 1.733 0.171c0.548 0.227 1.017 0.612 1.346 1.105s0.506 1.073 0.506 1.667c0 0.796-0.316 1.559-0.879 2.121s-1.326 0.879-2.121 0.879zM9 7c-0.198 0-0.391 0.059-0.556 0.169s-0.293 0.266-0.368 0.449c-0.076 0.183-0.096 0.384-0.057 0.578s0.134 0.372 0.274 0.512c0.14 0.14 0.318 0.235 0.512 0.274s0.395 0.019 0.578-0.057c0.183-0.076 0.339-0.204 0.449-0.368s0.169-0.358 0.169-0.556c0-0.265-0.105-0.52-0.293-0.707s-0.442-0.293-0.707-0.293z"></path>
<path fill="#fff" style="fill: var(--color1, #fff)" d="M23 19c-0.593 0-1.173-0.176-1.667-0.506s-0.878-0.798-1.105-1.346c-0.227-0.548-0.286-1.151-0.171-1.733s0.402-1.117 0.821-1.536 0.954-0.705 1.536-0.821c0.582-0.116 1.185-0.056 1.733 0.171s1.017 0.612 1.346 1.105c0.33 0.493 0.506 1.073 0.506 1.667 0 0.796-0.316 1.559-0.879 2.121s-1.326 0.879-2.121 0.879zM23 15c-0.198 0-0.391 0.059-0.556 0.169s-0.293 0.266-0.368 0.449c-0.076 0.183-0.096 0.384-0.057 0.578s0.134 0.372 0.274 0.512c0.14 0.14 0.318 0.235 0.512 0.274s0.395 0.019 0.578-0.057 0.339-0.204 0.449-0.368c0.11-0.164 0.168-0.358 0.168-0.556 0-0.265-0.105-0.52-0.293-0.707s-0.442-0.293-0.707-0.293z"></path>
<path fill="#fff" style="fill: var(--color1, #fff)" d="M13 27c-0.593 0-1.173-0.176-1.667-0.506s-0.878-0.798-1.105-1.346c-0.227-0.548-0.286-1.151-0.171-1.733s0.401-1.116 0.821-1.536c0.42-0.42 0.954-0.705 1.536-0.821s1.185-0.056 1.733 0.171 1.017 0.612 1.346 1.105c0.33 0.493 0.506 1.073 0.506 1.667 0 0.796-0.316 1.559-0.879 2.121s-1.326 0.879-2.121 0.879zM13 23c-0.198 0-0.391 0.059-0.556 0.168s-0.293 0.266-0.368 0.449-0.095 0.384-0.057 0.578c0.039 0.194 0.134 0.372 0.274 0.512s0.318 0.235 0.512 0.274 0.395 0.019 0.578-0.057c0.183-0.076 0.339-0.204 0.449-0.368s0.169-0.358 0.169-0.556c0-0.265-0.105-0.52-0.293-0.707s-0.442-0.293-0.707-0.293z"></path>
<path fill="#fff" style="fill: var(--color1, #fff)" d="M28 17h-3c-0.265 0-0.52-0.105-0.707-0.293s-0.293-0.442-0.293-0.707c0-0.265 0.105-0.52 0.293-0.707s0.442-0.293 0.707-0.293h3c0.265 0 0.52 0.105 0.707 0.293s0.293 0.442 0.293 0.707c0 0.265-0.105 0.52-0.293 0.707s-0.442 0.293-0.707 0.293z"></path>
<path fill="#fff" style="fill: var(--color1, #fff)" d="M28 25h-13c-0.265 0-0.52-0.105-0.707-0.293s-0.293-0.442-0.293-0.707 0.105-0.52 0.293-0.707c0.188-0.188 0.442-0.293 0.707-0.293h13c0.265 0 0.52 0.105 0.707 0.293s0.293 0.442 0.293 0.707-0.105 0.52-0.293 0.707c-0.188 0.188-0.442 0.293-0.707 0.293z"></path>
</symbol>
<symbol id="icon-mENI-iCON" viewBox="0 0 32 32">
<path fill="#797979" style="fill: var(--color3, #797979)" d="M0 5.6h32v5.6h-32v-5.6z"></path>
<path fill="#797979" style="fill: var(--color3, #797979)" d="M0 20h32v5.6h-32v-5.6z"></path>
</symbol>
<symbol id="icon-More-Btn" viewBox="0 0 32 32">
<path fill="none" stroke="#8e8e8e" style="stroke: var(--color4, #8e8e8e)" stroke-linejoin="miter" stroke-linecap="butt" stroke-miterlimit="4" stroke-width="0.8649" d="M30.797 15.754c-0.051 8.359-6.868 15.094-15.227 15.043s-15.094-6.868-15.043-15.227c0.051-8.359 6.868-15.094 15.227-15.043s15.094 6.868 15.043 15.227z"></path>
<path fill="#8e8e8e" style="fill: var(--color4, #8e8e8e)" d="M16.796 14.91h3.442v1.228h-3.442v3.563h-1.245v-3.563h-3.442v-1.228h3.442v-3.581h1.245v3.581z"></path>
</symbol>
<symbol id="icon-filter_filters_funnel_list_navigation_icon" viewBox="0 0 32 32">
<path d="M28 9h-17c-0.552 0-1-0.448-1-1s0.448-1 1-1v0h17c0.552 0 1 0.448 1 1s-0.448 1-1 1v0z"></path>
<path d="M7 9h-3c-0.552 0-1-0.448-1-1s0.448-1 1-1v0h3c0.552 0 1 0.448 1 1s-0.448 1-1 1v0z"></path>
<path d="M21 17h-17c-0.552 0-1-0.448-1-1s0.448-1 1-1v0h17c0.552 0 1 0.448 1 1s-0.448 1-1 1v0z"></path>
<path d="M11 25h-7c-0.552 0-1-0.448-1-1s0.448-1 1-1v0h7c0.552 0 1 0.448 1 1s-0.448 1-1 1v0z"></path>
<path d="M9 11c-1.657 0-3-1.343-3-3s1.343-3 3-3c1.657 0 3 1.343 3 3v0c0 1.657-1.343 3-3 3v0zM9 7c-0.552 0-1 0.448-1 1s0.448 1 1 1c0.552 0 1-0.448 1-1v0c0-0.552-0.448-1-1-1v0z"></path>
<path d="M23 19c-1.657 0-3-1.343-3-3s1.343-3 3-3c1.657 0 3 1.343 3 3v0c0 1.657-1.343 3-3 3v0zM23 15c-0.552 0-1 0.448-1 1s0.448 1 1 1c0.552 0 1-0.448 1-1v0c0-0.552-0.448-1-1-1v0z"></path>
<path d="M13 27c-1.657 0-3-1.343-3-3s1.343-3 3-3c1.657 0 3 1.343 3 3v0c0 1.657-1.343 3-3 3v0zM13 23c-0.552 0-1 0.448-1 1s0.448 1 1 1c0.552 0 1-0.448 1-1v0c0-0.552-0.448-1-1-1v0z"></path>
<path d="M28 17h-3c-0.552 0-1-0.448-1-1s0.448-1 1-1v0h3c0.552 0 1 0.448 1 1s-0.448 1-1 1v0z"></path>
<path d="M28 25h-13c-0.552 0-1-0.448-1-1s0.448-1 1-1v0h13c0.552 0 1 0.448 1 1s-0.448 1-1 1v0z"></path>
</symbol>
</defs>
</svg>
